<?xml version="1.0" encoding="UTF-8"?>
<svg id="Layer_2" data-name="Layer 2" xmlns="http://www.w3.org/2000/svg" viewBox="0 0 270.62 272.9" width="270.62" height="272.9">
  <defs>
    <style>
      .cls-1 {
        fill: #c1121f;
      }
    </style>
  </defs>
  <g id="Layer_3" data-name="Layer 3">
    <g>
      <circle class="cls-1" cx="135.31" cy="155.95" r="37.4"/>
      <path class="cls-1" d="M135.31,0L0,272.9s43.37-48.02,135.31-48.02,135.31,48.02,135.31,48.02L135.31,0ZM189.35,164.12c4.65,5.22,1.95,13.52-4.88,15l-1.08.24.45,1c2.81,6.41-2.32,13.47-9.28,12.77l-1.09-.11.11,1.09c.7,6.96-6.36,12.09-12.76,9.28l-1.01-.45-.23,1.08c-1.49,6.83-9.79,9.53-15.01,4.87l-.82-.73-.55.95c-3.53,6.04-12.26,6.04-15.78,0l-.55-.95-.82.73c-5.22,4.66-13.52,1.96-15.01-4.87l-.23-1.08-1.01.45c-6.4,2.81-13.46-2.32-12.76-9.28l.11-1.09-1.1.11c-6.96.7-12.09-6.36-9.27-12.77l.44-1-1.07-.24c-6.84-1.48-9.53-9.78-4.88-15l.74-.82-.96-.56c-6.04-3.52-6.04-12.25,0-15.77l.96-.56-.74-.82c-4.65-5.21-1.96-13.52,4.88-15l1.07-.23-.44-1.01c-2.82-6.4,2.31-13.47,9.27-12.76l1.1.11-.11-1.1c-.7-6.96,6.36-12.09,12.76-9.27l1.01.44.23-1.07c1.49-6.84,9.79-9.54,15.01-4.88l.82.73.55-.95c3.52-6.04,12.25-6.04,15.78,0l.55.95.82-.73c5.22-4.66,13.52-1.96,15.01,4.88l.23,1.07,1.01-.44c6.4-2.82,13.46,2.31,12.76,9.27l-.11,1.1,1.09-.11c6.96-.71,12.09,6.36,9.28,12.76l-.45,1.01,1.08.23c6.83,1.48,9.53,9.79,4.88,15l-.74.82.95.56c6.04,3.52,6.04,12.25,0,15.77l-.95.56.74.82Z"/>
    </g>
  </g>
</svg>