<svg width="24" height="24" viewBox="0 0 24 24" fill="none" xmlns="http://www.w3.org/2000/svg">
<path d="M19.27 3.6499L14.17 8.7499H3.2C2.54 8.7499 2 8.2099 2 7.5499V7.5399C2 5.2499 3.85 3.3999 6.14 3.3999H17.85C18.35 3.3999 18.83 3.4899 19.27 3.6499Z" fill="black"/>
<path d="M12.67 10.25L7.17 15.75H6C5.59 15.75 5.25 16.09 5.25 16.5C5.25 16.81 5.45 17.09 5.73 17.19L3.38 19.54C2.53 18.79 2 17.69 2 16.46V11.45C2 10.79 2.54 10.25 3.2 10.25H12.67Z" fill="black"/>
<path d="M22 11V16.46C22 18.75 20.15 20.6 17.86 20.6H8.80998C7.91998 20.6 7.46998 19.52 8.09998 18.89L9.44998 17.54C9.63998 17.35 9.88998 17.25 10.16 17.25H14.5C14.91 17.25 15.25 16.91 15.25 16.5C15.25 16.09 14.91 15.75 14.5 15.75H13.66C12.77 15.75 12.32 14.67 12.95 14.04L16.41 10.58C16.79 10.21 17.3 10 17.83 10H21C21.55 10 22 10.45 22 11Z" fill="black"/>
<path d="M21.77 2.22988C21.47 1.92988 20.98 1.92988 20.68 2.22988L2.23 20.6899C1.93 20.9899 1.93 21.4799 2.23 21.7799C2.38 21.9199 2.57 21.9999 2.77 21.9999C2.97 21.9999 3.16 21.9199 3.31 21.7699L21.77 3.30988C22.08 3.00988 22.08 2.52988 21.77 2.22988Z" fill="black"/>
<path d="M21.77 3.31006L20.61 4.47006L16.33 8.75006L3.31 21.7701C3.16 21.9201 2.97 22.0001 2.77 22.0001C2.57 22.0001 2.38 21.9201 2.23 21.7701C1.92 21.4701 1.92 20.9901 2.23 20.6901L3.38 19.5401L5.73 17.1901L19.27 3.65006L20.69 2.23006C20.99 1.92006 21.47 1.92006 21.77 2.23006C22.08 2.53006 22.08 3.01006 21.77 3.31006Z" fill="black"/>
<path d="M22 7.40977C22 6.51977 20.92 6.06977 20.29 6.69977L20 6.99977L19.71 7.28977C19.08 7.91977 19.52 8.99977 20.41 8.99977H21C21.55 8.99977 22 8.54977 22 7.99977V7.40977Z" fill="black"/>
</svg>
