<svg width="24" height="24" viewBox="0 0 24 24" fill="none" xmlns="http://www.w3.org/2000/svg">
<path d="M16.59 7.41L6.31002 17.69C5.83002 18.17 5.01002 18.06 4.72002 17.45C4.20002 16.38 3.90002 15.17 3.90002 13.9C3.88002 8.38 9.48002 3.66 11.38 2.21C11.75 1.93 12.25 1.93 12.61 2.21C13.48 2.87 15.11 4.24 16.64 6.04C16.98 6.44 16.96 7.04 16.59 7.41Z" fill="black"/>
<path d="M20.1 13.9098C20.1 18.3698 16.47 21.9998 12 21.9998C10.21 21.9998 8.54003 21.4198 7.19003 20.4198C6.70003 20.0598 6.66003 19.3398 7.09003 18.9098L17.16 8.83977C17.63 8.36977 18.42 8.46978 18.74 9.04978C19.56 10.5598 20.11 12.1998 20.1 13.9098Z" fill="black"/>
</svg>
