<svg width="24" height="24" viewBox="0 0 24 24" fill="none" xmlns="http://www.w3.org/2000/svg">
<path d="M6.90012 9.10012L11.6701 6.98012C11.8801 6.89012 12.1201 6.89012 12.3201 6.98012L17.0901 9.10012C17.5101 9.29012 17.9001 8.78012 17.6101 8.42012L12.6101 2.31012C12.2701 1.89012 11.7101 1.89012 11.3701 2.31012L6.37009 8.42012C6.09009 8.78012 6.48012 9.29012 6.90012 9.10012Z" fill="black"/>
<path d="M6.89958 14.9L11.6795 17.02C11.8895 17.11 12.1296 17.11 12.3296 17.02L17.1095 14.9C17.5295 14.71 17.9196 15.22 17.6296 15.58L12.6296 21.69C12.2896 22.11 11.7296 22.11 11.3896 21.69L6.38957 15.58C6.08957 15.22 6.46958 14.71 6.89958 14.9Z" fill="black"/>
<path d="M11.7796 9.49L7.64957 11.55C7.27957 11.73 7.27957 12.26 7.64957 12.44L11.7796 14.5C11.9196 14.57 12.0895 14.57 12.2295 14.5L16.3595 12.44C16.7295 12.26 16.7295 11.73 16.3595 11.55L12.2295 9.49C12.0795 9.42 11.9196 9.42 11.7796 9.49Z" fill="black"/>
</svg>
