<svg width="24" height="24" viewBox="0 0 24 24" fill="none" xmlns="http://www.w3.org/2000/svg">
<path d="M21.45 13.6401V14.6401C21.45 14.9101 21.24 15.1301 20.96 15.1401H19.5C18.97 15.1401 18.49 14.7501 18.45 14.2301C18.42 13.9201 18.54 13.6301 18.74 13.4301C18.92 13.2401 19.17 13.1401 19.44 13.1401H20.95C21.24 13.1501 21.45 13.3701 21.45 13.6401Z" fill="black"/>
<path d="M17.99 12.6901C17.49 13.1801 17.25 13.9101 17.45 14.6701C17.71 15.6001 18.62 16.1901 19.58 16.1901H20.45C21 16.1901 21.45 16.6401 21.45 17.1901V17.3801C21.45 19.4501 19.76 21.1401 17.69 21.1401H6.21001C4.14001 21.1401 2.45001 19.4501 2.45001 17.3801V10.6501C2.45001 9.42014 3.04001 8.33014 3.95001 7.65014C4.58001 7.17014 5.36001 6.89014 6.21001 6.89014H17.69C19.76 6.89014 21.45 8.58014 21.45 10.6501V11.0901C21.45 11.6401 21 12.0901 20.45 12.0901H19.43C18.87 12.0901 18.36 12.3101 17.99 12.6901Z" fill="black"/>
<path d="M16.2 4.82C16.47 5.09 16.24 5.51 15.86 5.51L8.18 5.5C7.74 5.5 7.51 4.96 7.83 4.65L9.45 3.02C10.82 1.66 13.04 1.66 14.41 3.02L16.16 4.79C16.17 4.8 16.19 4.81 16.2 4.82Z" fill="black"/>
</svg>
