<svg width="24" height="24" viewBox="0 0 24 24" fill="none" xmlns="http://www.w3.org/2000/svg">
<path d="M22 13.85C21.87 13.85 21.74 13.82 21.62 13.74L19.12 12.24C17.82 11.46 16.2 11.46 14.89 12.24C13.11 13.31 10.9 13.31 9.12 12.24C7.82 11.46 6.2 11.46 4.89 12.24L2.39 13.74C2.03 13.95 1.57 13.84 1.36 13.48C1.15 13.13 1.26 12.66 1.62 12.45L4.12 10.95C5.9 9.87996 8.11 9.87996 9.89 10.95C11.19 11.73 12.81 11.73 14.12 10.95C15.9 9.87996 18.11 9.87996 19.89 10.95L22.39 12.45C22.75 12.66 22.86 13.12 22.65 13.48C22.5 13.72 22.25 13.85 22 13.85Z" fill="black"/>
<path d="M7.00002 6.84978C6.00002 6.84978 5.00002 6.57978 4.11002 6.04978L1.61002 4.54978C1.26002 4.32978 1.14002 3.86978 1.36002 3.51978C1.57002 3.15978 2.03002 3.04978 2.39002 3.25978L4.89002 4.75978C6.19002 5.53978 7.81002 5.53978 9.12002 4.75978C10.9 3.68978 13.11 3.68978 14.89 4.75978C16.19 5.53978 17.81 5.53978 19.12 4.75978L21.62 3.25978C21.98 3.04978 22.44 3.15978 22.65 3.51978C22.86 3.86978 22.75 4.33978 22.39 4.54978L19.89 6.04978C18.11 7.11978 15.9 7.11978 14.12 6.04978C12.82 5.26978 11.2 5.26978 9.89002 6.04978C9.00002 6.57978 8.00002 6.84978 7.00002 6.84978Z" fill="black"/>
<path d="M22 20.85C21.87 20.85 21.74 20.82 21.62 20.74L19.12 19.24C17.82 18.46 16.2 18.46 14.89 19.24C13.11 20.31 10.9 20.31 9.12 19.24C7.82 18.46 6.2 18.46 4.89 19.24L2.39 20.74C2.03 20.95 1.57 20.84 1.36 20.48C1.15 20.13 1.26 19.66 1.62 19.45L4.12 17.95C5.9 16.88 8.11 16.88 9.89 17.95C11.19 18.73 12.81 18.73 14.12 17.95C15.9 16.88 18.11 16.88 19.89 17.95L22.39 19.45C22.75 19.66 22.86 20.12 22.65 20.48C22.5 20.72 22.25 20.85 22 20.85Z" fill="black"/>
</svg>
