<svg width="24" height="24" viewBox="0 0 24 24" fill="none" xmlns="http://www.w3.org/2000/svg">
<path d="M22 8.33994V15.6599C22 17.1599 20.37 18.0999 19.07 17.3499L15.9 15.5299L12.73 13.7C12.53 13.58 12.37 13.45 12.24 13.29V10.73C12.37 10.57 12.53 10.44 12.73 10.32L15.9 8.48993L19.07 6.66996C20.37 5.89996 22 6.83994 22 8.33994Z" stroke="black" stroke-width="1.5" stroke-linecap="round" stroke-linejoin="round"/>
<path d="M12.2401 8.33994V15.6599C12.2401 17.1599 10.6101 18.0999 9.31011 17.3499L6.14013 15.5299L2.97012 13.7C1.67012 12.95 1.67012 11.08 2.97012 10.32L6.14013 8.48993L9.31011 6.66996C10.6101 5.89996 12.2401 6.83994 12.2401 8.33994Z" stroke="black" stroke-width="1.5" stroke-linecap="round" stroke-linejoin="round"/>
</svg>
