<svg width="22" height="22" viewBox="0 0 22 22" fill="none" xmlns="http://www.w3.org/2000/svg">
<path d="M14.75 7.75C14.75 11.62 11.62 14.75 7.75 14.75C7.43 14.75 7.12 14.73 6.82 14.68C3.39 14.23 0.75 11.3 0.75 7.75C0.75 3.88 3.88 0.75 7.75 0.75C11.3 0.75 14.23 3.39 14.68 6.82C14.73 7.12 14.75 7.43 14.75 7.75Z" stroke="black" stroke-width="1.5" stroke-linecap="round" stroke-linejoin="round"/>
<path d="M20.7498 13.7501C20.7498 17.6201 17.6198 20.7501 13.7498 20.7501C10.1998 20.7501 7.26982 18.1101 6.81982 14.6801C7.11982 14.7301 7.42982 14.7501 7.74982 14.7501C11.6198 14.7501 14.7498 11.6201 14.7498 7.75007C14.7498 7.43007 14.7298 7.12007 14.6798 6.82007C18.1098 7.27007 20.7498 10.2001 20.7498 13.7501Z" stroke="black" stroke-width="1.5" stroke-linecap="round" stroke-linejoin="round"/>
<path d="M12.8999 12.8701L14.2099 14.1601" stroke="black" stroke-width="1.5" stroke-linecap="round" stroke-linejoin="round"/>
<path d="M15.75 10.75L14.75 9.75" stroke="black" stroke-width="1.5" stroke-linecap="round" stroke-linejoin="round"/>
<path d="M10.75 15.75L9.75 14.75" stroke="black" stroke-width="1.5" stroke-linecap="round" stroke-linejoin="round"/>
</svg>
