<svg width="24" height="24" viewBox="0 0 24 24" fill="none" xmlns="http://www.w3.org/2000/svg">
<path d="M6.27991 22C8.00304 22 9.39991 20.6031 9.39991 18.88C9.39991 17.1569 8.00304 15.76 6.27991 15.76C4.55678 15.76 3.15991 17.1569 3.15991 18.88C3.15991 20.6031 4.55678 22 6.27991 22Z" stroke="black" stroke-width="1.5" stroke-linecap="round" stroke-linejoin="round"/>
<path d="M20.8399 16.8001V4.60009C20.8399 2.00009 19.2099 1.64009 17.5599 2.09009L11.3199 3.79009C10.1799 4.10009 9.3999 5.00009 9.3999 6.30009V8.47009V9.93009V18.8701" stroke="black" stroke-width="1.5" stroke-linecap="round" stroke-linejoin="round"/>
<path d="M17.7201 19.9199C19.4432 19.9199 20.8401 18.5231 20.8401 16.7999C20.8401 15.0768 19.4432 13.6799 17.7201 13.6799C15.997 13.6799 14.6001 15.0768 14.6001 16.7999C14.6001 18.5231 15.997 19.9199 17.7201 19.9199Z" stroke="black" stroke-width="1.5" stroke-linecap="round" stroke-linejoin="round"/>
<path d="M9.3999 9.5199L20.8399 6.3999" stroke="black" stroke-width="1.5" stroke-linecap="round" stroke-linejoin="round"/>
</svg>
